<svg width="16" height="16" viewBox="0 0 16 16" fill="none" xmlns="http://www.w3.org/2000/svg">
<g clip-path="url(#clip0_1745_4007)">
<g clip-path="url(#clip1_1745_4007)">
<path fill-rule="evenodd" clip-rule="evenodd" d="M2.00033 8.00008C2.00033 4.68637 4.68662 2.00008 8.00033 2.00008C11.314 2.00008 14.0003 4.68637 14.0003 8.00008C14.0003 11.3138 11.314 14.0001 8.00033 14.0001C4.68662 14.0001 2.00033 11.3138 2.00033 8.00008ZM8.00033 0.666748C3.95024 0.666748 0.666992 3.94999 0.666992 8.00008C0.666992 12.0502 3.95024 15.3334 8.00033 15.3334C12.0504 15.3334 15.3337 12.0502 15.3337 8.00008C15.3337 3.94999 12.0504 0.666748 8.00033 0.666748ZM8.00033 7.00008C7.44804 7.00008 7.00033 7.4478 7.00033 8.00008C7.00033 8.55237 7.44804 9.00008 8.00033 9.00008H11.3337C11.8859 9.00008 12.3337 8.55237 12.3337 8.00008C12.3337 7.4478 11.8859 7.00008 11.3337 7.00008H8.00033Z" fill="#6F6F6F"/>
</g>
</g>
<defs>
<clipPath id="clip0_1745_4007">
<rect width="16" height="16" fill="white"/>
</clipPath>
<clipPath id="clip1_1745_4007">
<rect width="16" height="16" fill="white"/>
</clipPath>
</defs>
</svg>
