<svg width="16" height="16" viewBox="0 0 16 16" fill="none" xmlns="http://www.w3.org/2000/svg">
<g clip-path="url(#clip0_1746_3171)">
<path fill-rule="evenodd" clip-rule="evenodd" d="M9.99968 1.33325C11.4724 1.33325 12.6663 2.52716 12.6663 3.99992V11.9999C12.6663 13.4727 11.4724 14.6666 9.99967 14.6666H5.99967C4.52692 14.6666 3.33301 13.4727 3.33301 11.9999V3.99992C3.33301 2.52716 4.52692 1.33325 5.99968 1.33325H9.99968ZM9.99968 2.66659C10.7361 2.66659 11.333 3.26354 11.333 3.99992L11.333 11.9999C11.333 12.7363 10.7361 13.3333 9.99967 13.3333H5.99967C5.2633 13.3333 4.66634 12.7363 4.66634 11.9999L4.66634 3.99992C4.66634 3.26354 5.2633 2.66659 5.99968 2.66659L9.99968 2.66659ZM7.99967 11.3333C8.17649 11.3333 8.34606 11.4035 8.47108 11.5285C8.5961 11.6535 8.66634 11.8231 8.66634 11.9999C8.66634 12.1767 8.5961 12.3463 8.47108 12.4713C8.34606 12.5963 8.17649 12.6666 7.99967 12.6666C7.82286 12.6666 7.65329 12.5963 7.52827 12.4713C7.40325 12.3463 7.33301 12.1767 7.33301 11.9999C7.33301 11.8231 7.40325 11.6535 7.52827 11.5285C7.65329 11.4035 7.82286 11.3333 7.99967 11.3333Z" fill="#6F6F6F"/>
</g>
<defs>
<clipPath id="clip0_1746_3171">
<rect width="16" height="16" fill="white"/>
</clipPath>
</defs>
</svg>
